<svg xmlns="http://www.w3.org/2000/svg" xmlns:xlink="http://www.w3.org/1999/xlink" width="500" zoomAndPan="magnify" viewBox="0 0 375 374.999991" height="500" preserveAspectRatio="xMidYMid meet" version="1.0"><defs><clipPath id="80e3f9fc9a"><path d="M 0 55.226562 L 374 55.226562 L 374 317 L 0 317 Z M 0 55.226562 " clip-rule="nonzero"/></clipPath><clipPath id="ed5be7709b"><path d="M 327.410156 79.53125 L 327.410156 68.738281 C 327.410156 61.289062 321.355469 55.226562 313.914062 55.226562 L 286.796875 55.226562 C 279.355469 55.226562 273.300781 61.289062 273.300781 68.738281 L 273.300781 77.039062 C 272.230469 77.765625 271.328125 78.441406 270.660156 78.988281 C 262.914062 75.527344 231.660156 62.917969 187.351562 62.917969 C 143.042969 62.917969 111.789062 75.527344 104.042969 78.988281 C 103.375 78.441406 102.476562 77.765625 101.402344 77.039062 L 101.402344 68.738281 C 101.40625 61.289062 95.351562 55.226562 87.910156 55.226562 L 60.792969 55.226562 C 53.351562 55.226562 47.296875 61.289062 47.296875 68.738281 L 47.296875 79.53125 C 31.539062 93.0625 22 120.578125 12.425781 160.195312 C 4.097656 194.644531 1.527344 250.167969 0.742188 280.203125 C 0.335938 295.554688 9.765625 309.320312 24.199219 314.460938 C 39.425781 319.882812 56.351562 314.289062 65.363281 300.855469 L 95.164062 256.390625 C 101.394531 247.09375 111.789062 241.546875 122.972656 241.546875 L 251.734375 241.546875 C 262.914062 241.546875 273.3125 247.09375 279.539062 256.390625 L 309.34375 300.851562 C 316.046875 310.855469 327.144531 316.511719 338.660156 316.511719 C 342.613281 316.511719 346.617188 315.84375 350.511719 314.460938 C 364.949219 309.320312 374.378906 295.550781 373.972656 280.199219 C 373.179688 250.167969 370.613281 194.644531 362.289062 160.195312 C 352.703125 120.578125 343.167969 93.0625 327.410156 79.53125 Z M 279.222656 68.738281 C 279.222656 64.558594 282.621094 61.15625 286.796875 61.15625 L 313.910156 61.15625 C 318.085938 61.15625 321.480469 64.558594 321.480469 68.738281 L 321.480469 75.300781 C 318.214844 73.390625 314.730469 71.921875 310.925781 71.035156 C 297.046875 67.800781 286.34375 70.425781 279.222656 73.710938 Z M 53.21875 68.738281 C 53.21875 64.558594 56.613281 61.15625 60.789062 61.15625 L 87.90625 61.15625 C 92.082031 61.15625 95.476562 64.558594 95.476562 68.738281 L 95.476562 73.710938 C 88.355469 70.425781 77.65625 67.804688 63.773438 71.035156 C 59.96875 71.921875 56.488281 73.390625 53.21875 75.300781 Z M 348.519531 308.871094 C 335.835938 313.382812 321.757812 308.730469 314.265625 297.550781 L 284.460938 253.089844 C 277.128906 242.152344 264.894531 235.617188 251.734375 235.617188 L 122.972656 235.617188 C 109.808594 235.617188 97.570312 242.148438 90.242188 253.089844 L 60.4375 297.550781 C 52.945312 308.730469 38.847656 313.390625 26.183594 308.871094 C 14.167969 304.59375 6.320312 293.132812 6.660156 280.355469 C 7.445312 250.558594 9.984375 195.507812 18.183594 161.589844 C 29.859375 113.28125 41.785156 82.246094 65.121094 76.808594 C 80.796875 73.15625 91.753906 77.878906 97.289062 81.402344 C 99.847656 83.03125 101.253906 84.402344 101.417969 84.570312 C 102.3125 85.480469 103.695312 85.71875 104.839844 85.148438 C 105.171875 84.988281 138.550781 68.84375 187.351562 68.84375 C 236.152344 68.84375 269.53125 84.988281 269.863281 85.148438 C 271.015625 85.71875 272.390625 85.480469 273.285156 84.570312 C 273.414062 84.4375 286.515625 71.433594 309.582031 76.808594 C 332.917969 82.246094 344.847656 113.28125 356.523438 161.585938 C 364.722656 195.507812 367.261719 250.554688 368.046875 280.355469 C 368.382812 293.132812 360.535156 304.59375 348.519531 308.871094 Z M 218.238281 127.398438 L 156.464844 127.398438 C 154.832031 127.398438 153.503906 128.726562 153.503906 130.363281 L 153.503906 149.074219 C 153.503906 150.710938 154.832031 152.039062 156.464844 152.039062 L 218.238281 152.039062 C 219.871094 152.039062 221.199219 150.710938 221.199219 149.074219 L 221.199219 130.363281 C 221.199219 128.726562 219.871094 127.398438 218.238281 127.398438 Z M 215.273438 146.109375 L 159.429688 146.109375 L 159.429688 133.328125 L 215.273438 133.328125 Z M 218.238281 162.859375 L 156.464844 162.859375 C 154.832031 162.859375 153.503906 164.1875 153.503906 165.824219 L 153.503906 184.535156 C 153.503906 186.171875 154.832031 187.5 156.464844 187.5 L 218.238281 187.5 C 219.871094 187.5 221.199219 186.171875 221.199219 184.535156 L 221.199219 165.824219 C 221.199219 164.183594 219.871094 162.859375 218.238281 162.859375 Z M 215.273438 181.570312 L 159.429688 181.570312 L 159.429688 168.789062 L 215.273438 168.789062 Z M 294.335938 149.460938 C 305.070312 149.460938 313.796875 140.722656 313.796875 129.984375 C 313.796875 119.246094 305.066406 110.511719 294.335938 110.511719 C 283.609375 110.511719 274.878906 119.246094 274.878906 129.984375 C 274.878906 140.722656 283.609375 149.460938 294.335938 149.460938 Z M 294.335938 116.441406 C 301.804688 116.441406 307.871094 122.519531 307.871094 129.984375 C 307.871094 137.453125 301.800781 143.53125 294.335938 143.53125 C 286.875 143.53125 280.800781 137.453125 280.800781 129.984375 C 280.800781 122.519531 286.875 116.441406 294.335938 116.441406 Z M 280.078125 164.941406 C 280.078125 154.199219 271.347656 145.464844 260.617188 145.464844 C 249.886719 145.464844 241.15625 154.203125 241.15625 164.941406 C 241.15625 175.679688 249.886719 184.414062 260.617188 184.414062 C 271.347656 184.414062 280.078125 175.679688 280.078125 164.941406 Z M 260.613281 178.488281 C 253.148438 178.488281 247.078125 172.410156 247.078125 164.941406 C 247.078125 157.476562 253.152344 151.398438 260.613281 151.398438 C 268.078125 151.398438 274.148438 157.476562 274.148438 164.941406 C 274.148438 172.410156 268.078125 178.488281 260.613281 178.488281 Z M 293.320312 181.4375 C 282.59375 181.4375 273.863281 190.171875 273.863281 200.910156 C 273.863281 211.648438 282.59375 220.386719 293.320312 220.386719 C 304.054688 220.386719 312.78125 211.648438 312.78125 200.910156 C 312.78125 190.171875 304.054688 181.4375 293.320312 181.4375 Z M 293.320312 214.457031 C 285.859375 214.457031 279.785156 208.378906 279.785156 200.910156 C 279.785156 193.441406 285.859375 187.363281 293.320312 187.363281 C 300.785156 187.363281 306.855469 193.441406 306.855469 200.910156 C 306.855469 208.378906 300.785156 214.457031 293.320312 214.457031 Z M 329.265625 146.480469 C 318.535156 146.480469 309.804688 155.21875 309.804688 165.957031 C 309.804688 176.695312 318.535156 185.433594 329.265625 185.433594 C 339.996094 185.433594 348.722656 176.695312 348.722656 165.957031 C 348.722656 155.21875 339.996094 146.480469 329.265625 146.480469 Z M 329.265625 179.503906 C 321.800781 179.503906 315.730469 173.425781 315.730469 165.957031 C 315.730469 158.484375 321.800781 152.410156 329.265625 152.410156 C 336.730469 152.410156 342.800781 158.488281 342.800781 165.957031 C 342.800781 173.425781 336.730469 179.503906 329.265625 179.503906 Z M 78.628906 153.460938 C 79.203125 154.007812 79.941406 154.28125 80.675781 154.28125 C 81.414062 154.28125 82.152344 154.007812 82.722656 153.460938 L 94.34375 142.347656 C 94.929688 141.785156 95.261719 141.011719 95.261719 140.203125 L 95.261719 113.0625 C 95.261719 111.425781 93.933594 110.097656 92.296875 110.097656 L 69.054688 110.097656 C 67.421875 110.097656 66.09375 111.425781 66.09375 113.0625 L 66.09375 140.203125 C 66.09375 141.011719 66.425781 141.785156 67.007812 142.347656 Z M 72.019531 116.027344 L 89.335938 116.027344 L 89.335938 138.933594 L 80.675781 147.214844 L 72.019531 138.933594 Z M 73.214844 163.414062 L 62.109375 151.78125 C 61.550781 151.199219 60.777344 150.867188 59.96875 150.867188 L 32.851562 150.867188 C 31.214844 150.867188 29.886719 152.195312 29.886719 153.832031 L 29.886719 177.09375 C 29.886719 178.730469 31.214844 180.058594 32.851562 180.058594 L 59.96875 180.058594 C 60.777344 180.058594 61.550781 179.726562 62.109375 179.140625 L 73.214844 167.511719 C 74.308594 166.363281 74.308594 164.558594 73.214844 163.414062 Z M 58.699219 174.128906 L 35.8125 174.128906 L 35.8125 156.796875 L 58.699219 156.796875 L 66.972656 165.460938 Z M 82.835938 177.347656 C 81.691406 176.253906 79.890625 176.253906 78.742188 177.347656 L 67.121094 188.460938 C 66.539062 189.023438 66.207031 189.796875 66.207031 190.605469 L 66.207031 217.746094 C 66.207031 219.382812 67.53125 220.710938 69.167969 220.710938 L 92.410156 220.710938 C 94.046875 220.710938 95.375 219.382812 95.375 217.746094 L 95.375 190.605469 C 95.375 189.796875 95.042969 189.023438 94.457031 188.460938 Z M 89.453125 214.78125 L 72.132812 214.78125 L 72.132812 191.871094 L 80.792969 183.589844 L 89.453125 191.871094 Z M 128.617188 150.75 L 101.5 150.75 C 100.691406 150.75 99.917969 151.082031 99.359375 151.667969 L 88.25 163.296875 C 87.160156 164.445312 87.160156 166.246094 88.25 167.394531 L 99.359375 179.023438 C 99.917969 179.609375 100.691406 179.941406 101.5 179.941406 L 128.617188 179.941406 C 130.253906 179.941406 131.578125 178.613281 131.578125 176.976562 L 131.578125 153.714844 C 131.578125 152.078125 130.253906 150.75 128.617188 150.75 Z M 125.65625 174.011719 L 102.765625 174.011719 L 94.492188 165.347656 L 102.765625 156.679688 L 125.65625 156.679688 Z M 125.65625 174.011719 " clip-rule="nonzero"/></clipPath><linearGradient x1="63" gradientTransform="matrix(2.962363, 0, 0, 2.964725, 0.722986, 55.227269)" y1="0.00000124762" x2="63" gradientUnits="userSpaceOnUse" y2="89.268007" id="92e090be68"><stop stop-opacity="1" stop-color="rgb(93.699646%, 79.598999%, 34.498596%)" offset="0"/><stop stop-opacity="1" stop-color="rgb(93.644714%, 79.418945%, 34.671021%)" offset="0.0078125"/><stop stop-opacity="1" stop-color="rgb(93.536377%, 79.058838%, 35.015869%)" offset="0.015625"/><stop stop-opacity="1" stop-color="rgb(93.42804%, 78.69873%, 35.359192%)" offset="0.0234375"/><stop stop-opacity="1" stop-color="rgb(93.319702%, 78.338623%, 35.704041%)" offset="0.03125"/><stop stop-opacity="1" stop-color="rgb(93.211365%, 77.978516%, 36.047363%)" offset="0.0390625"/><stop stop-opacity="1" stop-color="rgb(93.101501%, 77.618408%, 36.392212%)" offset="0.046875"/><stop stop-opacity="1" stop-color="rgb(92.993164%, 77.258301%, 36.737061%)" offset="0.0546875"/><stop stop-opacity="1" stop-color="rgb(92.884827%, 76.898193%, 37.080383%)" offset="0.0625"/><stop stop-opacity="1" stop-color="rgb(92.776489%, 76.538086%, 37.425232%)" offset="0.0703125"/><stop stop-opacity="1" stop-color="rgb(92.668152%, 76.177979%, 37.768555%)" offset="0.078125"/><stop stop-opacity="1" stop-color="rgb(92.559814%, 75.819397%, 38.113403%)" offset="0.0859375"/><stop stop-opacity="1" stop-color="rgb(92.451477%, 75.45929%, 38.458252%)" offset="0.09375"/><stop stop-opacity="1" stop-color="rgb(92.34314%, 75.099182%, 38.801575%)" offset="0.101563"/><stop stop-opacity="1" stop-color="rgb(92.234802%, 74.739075%, 39.146423%)" offset="0.109375"/><stop stop-opacity="1" stop-color="rgb(92.126465%, 74.378967%, 39.489746%)" offset="0.117188"/><stop stop-opacity="1" stop-color="rgb(92.018127%, 74.01886%, 39.834595%)" offset="0.125"/><stop stop-opacity="1" stop-color="rgb(91.90979%, 73.658752%, 40.179443%)" offset="0.132813"/><stop stop-opacity="1" stop-color="rgb(91.801453%, 73.298645%, 40.522766%)" offset="0.140625"/><stop stop-opacity="1" stop-color="rgb(91.693115%, 72.938538%, 40.867615%)" offset="0.148438"/><stop stop-opacity="1" stop-color="rgb(91.584778%, 72.57843%, 41.210938%)" offset="0.15625"/><stop stop-opacity="1" stop-color="rgb(91.47644%, 72.218323%, 41.555786%)" offset="0.164063"/><stop stop-opacity="1" stop-color="rgb(91.368103%, 71.858215%, 41.899109%)" offset="0.171875"/><stop stop-opacity="1" stop-color="rgb(91.259766%, 71.498108%, 42.243958%)" offset="0.179688"/><stop stop-opacity="1" stop-color="rgb(91.151428%, 71.138%, 42.588806%)" offset="0.1875"/><stop stop-opacity="1" stop-color="rgb(91.043091%, 70.777893%, 42.932129%)" offset="0.195313"/><stop stop-opacity="1" stop-color="rgb(90.934753%, 70.417786%, 43.276978%)" offset="0.203125"/><stop stop-opacity="1" stop-color="rgb(90.82489%, 70.057678%, 43.6203%)" offset="0.210938"/><stop stop-opacity="1" stop-color="rgb(90.716553%, 69.697571%, 43.965149%)" offset="0.21875"/><stop stop-opacity="1" stop-color="rgb(90.608215%, 69.337463%, 44.309998%)" offset="0.226563"/><stop stop-opacity="1" stop-color="rgb(90.499878%, 68.977356%, 44.65332%)" offset="0.234375"/><stop stop-opacity="1" stop-color="rgb(90.391541%, 68.617249%, 44.998169%)" offset="0.242188"/><stop stop-opacity="1" stop-color="rgb(90.283203%, 68.257141%, 45.341492%)" offset="0.25"/><stop stop-opacity="1" stop-color="rgb(90.174866%, 67.897034%, 45.68634%)" offset="0.257812"/><stop stop-opacity="1" stop-color="rgb(90.066528%, 67.536926%, 46.031189%)" offset="0.265625"/><stop stop-opacity="1" stop-color="rgb(89.958191%, 67.176819%, 46.374512%)" offset="0.273438"/><stop stop-opacity="1" stop-color="rgb(89.849854%, 66.816711%, 46.71936%)" offset="0.28125"/><stop stop-opacity="1" stop-color="rgb(89.741516%, 66.456604%, 47.062683%)" offset="0.289062"/><stop stop-opacity="1" stop-color="rgb(89.633179%, 66.096497%, 47.407532%)" offset="0.296875"/><stop stop-opacity="1" stop-color="rgb(89.524841%, 65.736389%, 47.75238%)" offset="0.304688"/><stop stop-opacity="1" stop-color="rgb(89.416504%, 65.377808%, 48.095703%)" offset="0.3125"/><stop stop-opacity="1" stop-color="rgb(89.308167%, 65.0177%, 48.440552%)" offset="0.320312"/><stop stop-opacity="1" stop-color="rgb(89.199829%, 64.657593%, 48.783875%)" offset="0.328125"/><stop stop-opacity="1" stop-color="rgb(89.091492%, 64.297485%, 49.128723%)" offset="0.335937"/><stop stop-opacity="1" stop-color="rgb(88.983154%, 63.937378%, 49.473572%)" offset="0.34375"/><stop stop-opacity="1" stop-color="rgb(88.874817%, 63.577271%, 49.816895%)" offset="0.351562"/><stop stop-opacity="1" stop-color="rgb(88.766479%, 63.217163%, 50.161743%)" offset="0.359375"/><stop stop-opacity="1" stop-color="rgb(88.656616%, 62.857056%, 50.505066%)" offset="0.367188"/><stop stop-opacity="1" stop-color="rgb(88.548279%, 62.496948%, 50.849915%)" offset="0.375"/><stop stop-opacity="1" stop-color="rgb(88.439941%, 62.136841%, 51.193237%)" offset="0.382812"/><stop stop-opacity="1" stop-color="rgb(88.331604%, 61.776733%, 51.538086%)" offset="0.390625"/><stop stop-opacity="1" stop-color="rgb(88.223267%, 61.416626%, 51.882935%)" offset="0.398438"/><stop stop-opacity="1" stop-color="rgb(88.114929%, 61.056519%, 52.226257%)" offset="0.40625"/><stop stop-opacity="1" stop-color="rgb(88.006592%, 60.696411%, 52.571106%)" offset="0.414063"/><stop stop-opacity="1" stop-color="rgb(87.898254%, 60.336304%, 52.914429%)" offset="0.421875"/><stop stop-opacity="1" stop-color="rgb(87.789917%, 59.976196%, 53.259277%)" offset="0.429688"/><stop stop-opacity="1" stop-color="rgb(87.68158%, 59.616089%, 53.604126%)" offset="0.4375"/><stop stop-opacity="1" stop-color="rgb(87.573242%, 59.255981%, 53.947449%)" offset="0.445313"/><stop stop-opacity="1" stop-color="rgb(87.464905%, 58.895874%, 54.292297%)" offset="0.453125"/><stop stop-opacity="1" stop-color="rgb(87.356567%, 58.535767%, 54.63562%)" offset="0.460938"/><stop stop-opacity="1" stop-color="rgb(87.24823%, 58.175659%, 54.980469%)" offset="0.46875"/><stop stop-opacity="1" stop-color="rgb(87.139893%, 57.815552%, 55.325317%)" offset="0.476563"/><stop stop-opacity="1" stop-color="rgb(87.031555%, 57.455444%, 55.66864%)" offset="0.484375"/><stop stop-opacity="1" stop-color="rgb(86.923218%, 57.095337%, 56.013489%)" offset="0.492188"/><stop stop-opacity="1" stop-color="rgb(86.81488%, 56.735229%, 56.356812%)" offset="0.5"/><stop stop-opacity="1" stop-color="rgb(86.706543%, 56.375122%, 56.70166%)" offset="0.507813"/><stop stop-opacity="1" stop-color="rgb(86.598206%, 56.015015%, 57.046509%)" offset="0.515625"/><stop stop-opacity="1" stop-color="rgb(86.489868%, 55.654907%, 57.389832%)" offset="0.523438"/><stop stop-opacity="1" stop-color="rgb(86.380005%, 55.2948%, 57.73468%)" offset="0.53125"/><stop stop-opacity="1" stop-color="rgb(86.271667%, 54.936218%, 58.078003%)" offset="0.539063"/><stop stop-opacity="1" stop-color="rgb(86.16333%, 54.576111%, 58.422852%)" offset="0.546875"/><stop stop-opacity="1" stop-color="rgb(86.054993%, 54.216003%, 58.7677%)" offset="0.554688"/><stop stop-opacity="1" stop-color="rgb(85.946655%, 53.855896%, 59.111023%)" offset="0.5625"/><stop stop-opacity="1" stop-color="rgb(85.838318%, 53.495789%, 59.455872%)" offset="0.570313"/><stop stop-opacity="1" stop-color="rgb(85.72998%, 53.135681%, 59.799194%)" offset="0.578125"/><stop stop-opacity="1" stop-color="rgb(85.621643%, 52.775574%, 60.144043%)" offset="0.585938"/><stop stop-opacity="1" stop-color="rgb(85.513306%, 52.415466%, 60.488892%)" offset="0.59375"/><stop stop-opacity="1" stop-color="rgb(85.404968%, 52.055359%, 60.832214%)" offset="0.601563"/><stop stop-opacity="1" stop-color="rgb(85.296631%, 51.695251%, 61.177063%)" offset="0.609375"/><stop stop-opacity="1" stop-color="rgb(85.188293%, 51.335144%, 61.520386%)" offset="0.617188"/><stop stop-opacity="1" stop-color="rgb(85.079956%, 50.975037%, 61.865234%)" offset="0.625"/><stop stop-opacity="1" stop-color="rgb(84.971619%, 50.614929%, 62.208557%)" offset="0.632813"/><stop stop-opacity="1" stop-color="rgb(84.863281%, 50.254822%, 62.553406%)" offset="0.640625"/><stop stop-opacity="1" stop-color="rgb(84.754944%, 49.894714%, 62.898254%)" offset="0.648438"/><stop stop-opacity="1" stop-color="rgb(84.646606%, 49.534607%, 63.241577%)" offset="0.65625"/><stop stop-opacity="1" stop-color="rgb(84.538269%, 49.1745%, 63.586426%)" offset="0.664063"/><stop stop-opacity="1" stop-color="rgb(84.429932%, 48.814392%, 63.929749%)" offset="0.671875"/><stop stop-opacity="1" stop-color="rgb(84.321594%, 48.454285%, 64.274597%)" offset="0.679688"/><stop stop-opacity="1" stop-color="rgb(84.211731%, 48.094177%, 64.619446%)" offset="0.6875"/><stop stop-opacity="1" stop-color="rgb(84.103394%, 47.73407%, 64.962769%)" offset="0.695312"/><stop stop-opacity="1" stop-color="rgb(83.995056%, 47.373962%, 65.307617%)" offset="0.703125"/><stop stop-opacity="1" stop-color="rgb(83.886719%, 47.013855%, 65.65094%)" offset="0.710938"/><stop stop-opacity="1" stop-color="rgb(83.778381%, 46.653748%, 65.995789%)" offset="0.71875"/><stop stop-opacity="1" stop-color="rgb(83.670044%, 46.29364%, 66.340637%)" offset="0.726563"/><stop stop-opacity="1" stop-color="rgb(83.561707%, 45.933533%, 66.68396%)" offset="0.734375"/><stop stop-opacity="1" stop-color="rgb(83.453369%, 45.573425%, 67.028809%)" offset="0.742188"/><stop stop-opacity="1" stop-color="rgb(83.345032%, 45.213318%, 67.372131%)" offset="0.75"/><stop stop-opacity="1" stop-color="rgb(83.236694%, 44.85321%, 67.71698%)" offset="0.757813"/><stop stop-opacity="1" stop-color="rgb(83.128357%, 44.494629%, 68.061829%)" offset="0.765625"/><stop stop-opacity="1" stop-color="rgb(83.02002%, 44.134521%, 68.405151%)" offset="0.773438"/><stop stop-opacity="1" stop-color="rgb(82.911682%, 43.774414%, 68.75%)" offset="0.78125"/><stop stop-opacity="1" stop-color="rgb(82.803345%, 43.414307%, 69.093323%)" offset="0.789062"/><stop stop-opacity="1" stop-color="rgb(82.695007%, 43.054199%, 69.438171%)" offset="0.796875"/><stop stop-opacity="1" stop-color="rgb(82.58667%, 42.694092%, 69.78302%)" offset="0.804688"/><stop stop-opacity="1" stop-color="rgb(82.478333%, 42.333984%, 70.126343%)" offset="0.8125"/><stop stop-opacity="1" stop-color="rgb(82.369995%, 41.973877%, 70.471191%)" offset="0.820313"/><stop stop-opacity="1" stop-color="rgb(82.261658%, 41.61377%, 70.814514%)" offset="0.828125"/><stop stop-opacity="1" stop-color="rgb(82.15332%, 41.253662%, 71.159363%)" offset="0.835938"/><stop stop-opacity="1" stop-color="rgb(82.043457%, 40.893555%, 71.504211%)" offset="0.84375"/><stop stop-opacity="1" stop-color="rgb(81.93512%, 40.533447%, 71.847534%)" offset="0.851563"/><stop stop-opacity="1" stop-color="rgb(81.826782%, 40.17334%, 72.192383%)" offset="0.859375"/><stop stop-opacity="1" stop-color="rgb(81.718445%, 39.813232%, 72.535706%)" offset="0.867188"/><stop stop-opacity="1" stop-color="rgb(81.610107%, 39.453125%, 72.880554%)" offset="0.875"/><stop stop-opacity="1" stop-color="rgb(81.50177%, 39.093018%, 73.223877%)" offset="0.882812"/><stop stop-opacity="1" stop-color="rgb(81.393433%, 38.73291%, 73.568726%)" offset="0.890625"/><stop stop-opacity="1" stop-color="rgb(81.285095%, 38.372803%, 73.913574%)" offset="0.898438"/><stop stop-opacity="1" stop-color="rgb(81.176758%, 38.012695%, 74.256897%)" offset="0.90625"/><stop stop-opacity="1" stop-color="rgb(81.06842%, 37.652588%, 74.601746%)" offset="0.914063"/><stop stop-opacity="1" stop-color="rgb(80.960083%, 37.29248%, 74.945068%)" offset="0.921875"/><stop stop-opacity="1" stop-color="rgb(80.851746%, 36.932373%, 75.289917%)" offset="0.929688"/><stop stop-opacity="1" stop-color="rgb(80.743408%, 36.572266%, 75.634766%)" offset="0.9375"/><stop stop-opacity="1" stop-color="rgb(80.635071%, 36.212158%, 75.978088%)" offset="0.945313"/><stop stop-opacity="1" stop-color="rgb(80.526733%, 35.852051%, 76.322937%)" offset="0.953125"/><stop stop-opacity="1" stop-color="rgb(80.418396%, 35.491943%, 76.66626%)" offset="0.960938"/><stop stop-opacity="1" stop-color="rgb(80.310059%, 35.131836%, 77.011108%)" offset="0.96875"/><stop stop-opacity="1" stop-color="rgb(80.201721%, 34.771729%, 77.355957%)" offset="0.976562"/><stop stop-opacity="1" stop-color="rgb(80.093384%, 34.411621%, 77.69928%)" offset="0.984375"/><stop stop-opacity="1" stop-color="rgb(80.018616%, 34.165955%, 77.935791%)" offset="1"/></linearGradient></defs><g clip-path="url(#80e3f9fc9a)"><g clip-path="url(#ed5be7709b)"><path fill="url(#92e090be68)" d="M 0.335938 55.226562 L 0.335938 319.882812 L 374.378906 319.882812 L 374.378906 55.226562 Z M 0.335938 55.226562 " fill-rule="nonzero"/></g></g></svg>