<svg xmlns="http://www.w3.org/2000/svg" xmlns:xlink="http://www.w3.org/1999/xlink" width="500" zoomAndPan="magnify" viewBox="0 0 375 374.999991" height="500" preserveAspectRatio="xMidYMid meet" version="1.0"><defs><clipPath id="7d0b44b660"><path d="M 0 180 L 370 180 L 370 339.226562 L 0 339.226562 Z M 0 180 " clip-rule="nonzero"/></clipPath><clipPath id="0a2fc66a84"><path d="M 5 109.488281 L 375 109.488281 L 375 269 L 5 269 Z M 5 109.488281 " clip-rule="nonzero"/></clipPath><clipPath id="048f813d30"><path d="M 5 35.78125 L 375 35.78125 L 375 195 L 5 195 Z M 5 35.78125 " clip-rule="nonzero"/></clipPath><clipPath id="98ca6640c8"><path d="M 171 35.625 L 252 35.625 L 252 51 L 171 51 Z M 171 35.625 " clip-rule="nonzero"/></clipPath><clipPath id="8bc2caa866"><path d="M 5 35.625 L 252 35.625 L 252 91 L 5 91 Z M 5 35.625 " clip-rule="nonzero"/></clipPath></defs><g clip-path="url(#7d0b44b660)"><path fill="#5d85bd" d="M 1.089844 228.925781 L 166.546875 180.070312 L 356.425781 214.742188 C 356.425781 214.742188 381.640625 243.101562 363.007812 278.953125 C 319.675781 295.5 209.089844 339.226562 209.089844 339.226562 L 1.089844 299.042969 C 1.089844 299.042969 -3.636719 294.3125 6.605469 291.953125 C 6.605469 278.167969 6.605469 235.222656 6.605469 235.222656 C 6.605469 235.222656 -0.484375 233.652344 1.089844 228.925781 " fill-opacity="1" fill-rule="nonzero"/></g><path fill="#3f5983" d="M 216.621094 330.039062 C 235.9375 296.128906 215.765625 267.246094 215.765625 267.246094 C 215.765625 267.246094 247.324219 256.246094 263.382812 250.164062 L 266.660156 249.53125 C 283.800781 283.074219 270.808594 308.789062 270.808594 308.789062 L 216.621094 330.039062 " fill-opacity="1" fill-rule="nonzero"/><path fill="#f2f2f2" d="M 5.238281 235.222656 L 5.238281 291.953125 L 207.457031 329.773438 C 207.457031 329.773438 228.074219 306.921875 207.457031 268.3125 C 121.8125 251.769531 5.238281 235.222656 5.238281 235.222656 " fill-opacity="1" fill-rule="nonzero"/><path fill="#dad9d7" d="M 207.457031 329.773438 L 5.238281 291.953125 L 5.238281 235.222656 C 5.238281 235.222656 64 243.5625 128.730469 254.320312 C 150.40625 262.859375 165.914062 268.996094 165.914062 268.996094 L 188.207031 264.6875 C 194.75 265.894531 201.1875 267.105469 207.457031 268.3125 C 214.332031 281.1875 216.621094 292.3125 216.621094 301.417969 C 216.617188 319.617188 207.457031 329.773438 207.457031 329.773438 " fill-opacity="1" fill-rule="nonzero"/><g clip-path="url(#0a2fc66a84)"><path fill="#ecb348" d="M 373.917969 161.257812 L 208.457031 109.839844 L 18.578125 144.507812 C 18.578125 144.507812 -6.632812 172.871094 11.996094 208.71875 C 55.332031 225.269531 165.914062 268.996094 165.914062 268.996094 L 373.917969 228.8125 C 373.917969 228.8125 378.644531 224.082031 368.398438 221.71875 C 368.398438 207.933594 368.398438 166.855469 368.398438 166.855469 C 368.398438 166.855469 375.492188 165.984375 373.917969 161.257812 " fill-opacity="1" fill-rule="nonzero"/></g><path fill="#f2f2f2" d="M 369.257812 221.71875 L 165.265625 262.3125 L 17.84375 204.691406 C 17.84375 204.691406 4.152344 179.304688 22.410156 151.347656 C 51.507812 162.757812 167.835938 200.984375 167.835938 200.984375 L 369.257812 166.703125 L 369.257812 221.71875 " fill-opacity="1" fill-rule="nonzero"/><path fill="#dad9d7" d="M 165.265625 262.3125 L 17.84375 204.691406 C 17.84375 204.691406 12.914062 195.546875 12.917969 182.195312 C 12.917969 174.867188 14.40625 166.269531 19.007812 157.21875 L 62.148438 165.550781 C 106.847656 180.945312 167.835938 200.984375 167.835938 200.984375 L 165.265625 262.3125 " fill-opacity="1" fill-rule="nonzero"/><g clip-path="url(#048f813d30)"><path fill="#47ad96" d="M 6.222656 84.625 L 171.679688 35.777344 L 361.5625 70.445312 C 361.5625 70.445312 386.777344 98.808594 368.140625 134.652344 C 324.808594 151.203125 214.226562 194.929688 214.226562 194.929688 L 6.222656 154.75 C 6.222656 154.75 1.496094 150.015625 11.738281 147.65625 C 11.738281 133.867188 11.738281 90.925781 11.738281 90.925781 C 11.738281 90.925781 4.648438 89.351562 6.222656 84.625 " fill-opacity="1" fill-rule="nonzero"/></g><g clip-path="url(#98ca6640c8)"><path fill="#ffffff" d="M 251.25 50.304688 L 171.679688 35.777344 L 251.25 50.304688 " fill-opacity="1" fill-rule="nonzero"/></g><g clip-path="url(#8bc2caa866)"><path fill="#62bfa9" d="M 11.738281 90.925781 C 11.738281 90.925781 5.988281 89.648438 5.996094 85.945312 C 5.996094 85.535156 6.066406 85.097656 6.222656 84.625 L 171.679688 35.777344 L 251.25 50.304688 L 11.738281 90.925781 " fill-opacity="1" fill-rule="nonzero"/></g><path fill="#f2f2f2" d="M 10.371094 90.925781 L 10.371094 147.65625 L 212.589844 185.472656 C 212.589844 185.472656 233.207031 162.625 212.589844 124.019531 C 126.945312 107.476562 10.371094 90.925781 10.371094 90.925781 " fill-opacity="1" fill-rule="nonzero"/><path fill="#9edbc8" d="M 221.753906 185.472656 C 241.074219 151.5625 220.898438 122.679688 220.898438 122.679688 C 220.898438 122.679688 257.414062 109.839844 272.953125 105.5625 C 290.496094 139.355469 275.945312 164.992188 275.945312 164.992188 L 221.753906 185.472656 " fill-opacity="1" fill-rule="nonzero"/></svg>